<svg width="50" height="51" viewBox="0 0 50 51" fill="none" xmlns="http://www.w3.org/2000/svg">
<path d="M46.3035 0H3.69347C1.65402 0 0 1.61457 0 3.60445V46.7132C0 48.7021 1.65402 50.3166 3.69347 50.3166H46.3035C48.346 50.3166 50 48.7011 50 46.7132V3.60445C50 1.61356 48.345 0 46.3035 0ZM15.1553 42.1214H7.60344V19.4011H15.1553V42.1214ZM11.3799 16.2974H11.3293C8.79615 16.2974 7.15731 14.5524 7.15731 12.3723C7.15731 10.1437 8.84674 8.44714 11.4294 8.44714C14.0132 8.44714 15.6024 10.1437 15.653 12.3723C15.653 14.5524 14.0121 16.2974 11.3799 16.2974ZM42.3875 42.1214H34.8356V29.9636C34.8356 26.9105 33.743 24.8265 31.0106 24.8265C28.9246 24.8265 27.6823 26.2317 27.1351 27.5893C26.9358 28.0739 26.8872 28.7516 26.8872 29.4315V42.1204H19.3354C19.3354 42.1204 19.4345 21.5296 19.3354 19.4001H26.8872V22.6161C27.8907 21.0683 29.6854 18.8639 33.6945 18.8639C38.6626 18.8639 42.3885 22.1123 42.3885 29.0916L42.3875 42.1214Z" fill="#44C668"/>
</svg>
